name kv03_filtered_grf.mot
datacolumns 37
datarows 5
range 0.002500 0.004500
endheader
time	1_ground_force_vx	1_ground_force_vy	1_ground_force_vz	1_ground_force_px	1_ground_force_py	1_ground_force_pz	1_ground_torque_x	1_ground_torque_y	1_ground_torque_z	2_ground_force_vx	2_ground_force_vy	2_ground_force_vz	2_ground_force_px	2_ground_force_py	2_ground_force_pz	2_ground_torque_x	2_ground_torque_y	2_ground_torque_z	3_ground_force_vx	3_ground_force_vy	3_ground_force_vz	3_ground_force_px	3_ground_force_py	3_ground_force_pz	3_ground_torque_x	3_ground_torque_y	3_ground_torque_z	4_ground_force_vx	4_ground_force_vy	4_ground_force_vz	4_ground_force_px	4_ground_force_py	4_ground_force_pz	4_ground_torque_x	4_ground_torque_y	4_ground_torque_z
            0.002500	          -38.107310	          323.778348	           39.796802	            0.116858	            0.000000	            0.177810	           -0.515084	            4.376403	            0.537920	           49.799848	          290.240552	           18.833419	           -0.192800	            0.000000	            0.202525	            1.935861	           11.282471	            0.732108	           -0.413760	           -0.130591	           -2.382753	            0.387019	            0.970173	            1.075415	           -0.011388	            0.013941	            0.016568	            0.629751	           -1.269306	           -2.061833	           -0.368840	            0.969655	            1.108014	            0.024490	           -0.058169	            0.046789
            0.003000	          -38.253792	          324.471282	           39.704946	            0.116895	            0.000000	            0.178078	           -0.518891	            4.401269	            0.538575	           49.981784	          291.776589	           19.090258	           -0.192826	            0.000000	            0.202520	            1.943327	           11.344480	            0.742243	           -0.413269	           -0.118864	           -2.270728	            0.387019	            0.970173	            1.075415	           -0.010463	            0.013173	            0.015668	            0.587617	           -1.196440	           -1.981880	           -0.368840	            0.969655	            1.108014	            0.022618	           -0.054871	            0.044819
            0.003500	          -38.402398	          325.179853	           39.611014	            0.116933	            0.000000	            0.178351	           -0.522724	            4.426266	            0.539175	           50.163045	          293.337377	           19.363078	           -0.192855	            0.000000	            0.202514	            1.950887	           11.408158	            0.753048	           -0.412394	           -0.107119	           -2.160392	            0.387018	            0.970173	            1.075414	           -0.009560	            0.012419	            0.014790	            0.546136	           -1.124751	           -1.902081	           -0.368844	            0.969655	            1.108017	            0.020783	           -0.051613	            0.042870
            0.004000	          -38.552980	          325.903666	           39.515112	            0.116971	            0.000000	            0.178629	           -0.526577	            4.451365	            0.539718	           50.343291	          294.921231	           19.652147	           -0.192884	            0.000000	            0.202508	            1.958531	           11.473473	            0.764538	           -0.411119	           -0.095391	           -2.051902	            0.387017	            0.970173	            1.075414	           -0.008681	            0.011679	            0.013938	            0.505379	           -1.054394	           -1.822599	           -0.368848	            0.969655	            1.108019	            0.018990	           -0.048399	            0.040947
            0.004500	          -38.705390	          326.642312	           39.417350	            0.117010	            0.000000	            0.178910	           -0.530446	            4.476539	            0.540203	           50.522181	          296.526425	           19.957699	           -0.192915	            0.000000	            0.202500	            1.966252	           11.540387	            0.776725	           -0.409434	           -0.083711	           -1.945406	            0.387016	            0.970173	            1.075413	           -0.007825	            0.010956	            0.013112	            0.465415	           -0.985519	           -1.743595	           -0.368853	            0.969655	            1.108021	            0.017241	           -0.045238	            0.039053
